<svg width="32" height="32" viewBox="0 0 32 32" fill="none" xmlns="http://www.w3.org/2000/svg">
<path d="M23.6109 5.75977H8.38913C6.93894 5.75977 5.76001 6.83437 5.76001 8.38888V23.6106C5.76001 25.1652 6.93894 26.2398 8.38913 26.2398H23.6109C25.0611 26.2398 26.24 25.1652 26.24 23.6106V8.38888C26.24 6.83437 25.0611 5.75977 23.6109 5.75977ZM19.7611 8.9627C19.7611 8.45148 20.1784 8.0446 20.6792 8.0446H22.9953C23.5066 8.0446 23.9134 8.46192 23.9134 8.9627V11.1745C23.9134 11.6857 23.4961 12.0926 22.9953 12.0926H20.6792C20.168 12.0926 19.7611 11.6753 19.7611 11.1745V8.9627ZM16.0261 11.9778C18.3005 11.9778 20.1367 13.7619 20.1367 15.9633C20.1367 18.1646 18.29 19.9487 16.0261 19.9487C13.7517 19.9487 11.9155 18.1646 11.9155 15.9633C11.9155 13.7619 13.7517 11.9778 16.0261 11.9778ZM23.9239 23.0786C23.9239 23.5272 23.5587 23.8923 23.1101 23.8923H8.84818C8.39956 23.8923 8.03441 23.5272 8.03441 23.0786V14.4192H9.91234C9.74541 14.9721 9.65152 15.5668 9.65152 16.1719C9.65152 19.5835 12.4997 22.3378 16.0157 22.3378C19.5316 22.3378 22.3798 19.5731 22.3798 16.1719C22.3798 15.5668 22.2859 14.9721 22.119 14.4192H23.9239V23.0786Z" fill="white"/>
</svg>
