<svg width="32" height="32" viewBox="0 0 32 32" fill="none" xmlns="http://www.w3.org/2000/svg">
<path d="M26.0505 26.0602L26.0608 18.6172C26.0608 14.973 25.2784 12.1729 21.0165 12.1729C18.9679 12.1729 17.5987 13.295 17.0325 14.3656H16.9708V12.5023H12.9353V26.0499H17.1355V19.3481C17.1355 17.5775 17.4752 15.8686 19.6576 15.8686C21.8092 15.8686 21.8503 17.8863 21.8503 19.4614V26.0602H26.0505Z" fill="white"/>
<path d="M10.3102 12.5029H6.09973V26.0505H10.3102V12.5029Z" fill="white"/>
<path d="M8.19981 5.75977C6.85122 5.75977 5.76001 6.85099 5.76001 8.19957C5.76001 9.54815 6.85122 10.66 8.19981 10.66C9.54839 10.66 10.6396 9.54815 10.6396 8.19957C10.6396 6.85099 9.54839 5.75977 8.19981 5.75977Z" fill="white"/>
</svg>
