<svg width="32" height="32" viewBox="0 0 32 32" fill="none" xmlns="http://www.w3.org/2000/svg">
<path d="M25.6688 10.7105L25.6811 11.3541C25.6811 17.9633 20.6617 25.5998 11.4862 25.5998C8.67437 25.5998 6.04751 24.7705 3.83997 23.3348C4.22228 23.3843 4.61692 23.4091 5.0239 23.4091C7.36711 23.4091 9.51299 22.6046 11.2149 21.2555C9.03201 21.2184 7.19445 19.7703 6.55315 17.7776C6.86146 17.8395 7.16978 17.8643 7.49043 17.8643C7.94674 17.8643 8.39071 17.8024 8.79769 17.691C6.51615 17.2331 4.80191 15.2156 4.80191 12.7898V12.7403C5.46788 13.1116 6.2325 13.3344 7.05879 13.3591C5.72686 12.468 4.85124 10.9209 4.85124 9.20051C4.85124 8.28463 5.0979 7.41826 5.52954 6.67565C7.97141 9.70796 11.6589 11.6882 15.8026 11.8987C15.7163 11.5397 15.6793 11.156 15.6793 10.76C15.6793 7.99996 17.8992 5.75977 20.6617 5.75977C22.0923 5.75977 23.3996 6.36623 24.3122 7.33162C25.4344 7.10884 26.5074 6.7004 27.4817 6.13107C27.1117 7.29449 26.3224 8.28463 25.2865 8.90347C26.2977 8.7797 27.2597 8.50741 28.16 8.11136C27.4817 9.11388 26.6307 10.005 25.6688 10.7105Z" fill="white"/>
</svg>
